P2
# Cruz central
7 7
255
0 0 255 0 255 0 0
0 0 255 0 255 0 0
255 255 255 255 255 255 255
0 0 255 255 255 0 0
255 255 255 255 255 255 255
0 0 255 0 255 0 0
0 0 255 0 255 0 0
